<?xml version="1.0" encoding="utf-8"?>
<!-- Generator: Adobe Illustrator 27.3.1, SVG Export Plug-In . SVG Version: 6.00 Build 0)  -->
<svg version="1.1" id="Layer_1" xmlns="http://www.w3.org/2000/svg" xmlns:xlink="http://www.w3.org/1999/xlink" x="0px" y="0px"
	 viewBox="0 0 86.7 93" style="enable-background:new 0 0 86.7 93;" xml:space="preserve">
<style type="text/css">
	.st0{fill:#707070;}
</style>
<path class="st0" d="M51.8,58.5c-0.6,0-1-0.4-1-1c0-4.1-3.4-7.5-7.5-7.5s-7.5,3.4-7.5,7.5c0,0.6-0.4,1-1,1s-1-0.4-1-1
	c0-5.2,4.2-9.5,9.5-9.5c5.2,0,9.5,4.2,9.5,9.5C52.8,58,52.4,58.5,51.8,58.5z"/>
<path class="st0" d="M63.1,58.5c-0.6,0-1-0.4-1-1c0-5-2-9.7-5.5-13.3c-3.5-3.5-8.3-5.5-13.3-5.5l0,0c-10.3,0-18.8,8.4-18.8,18.8
	c0,0.6-0.4,1-1,1l0,0c-0.6,0-1-0.4-1-1c0-11.4,9.3-20.8,20.8-20.8l0,0c5.5,0,10.8,2.2,14.7,6.1s6.1,9.1,6.1,14.7
	C64.1,58,63.7,58.5,63.1,58.5z"/>
<path class="st0" d="M74.4,58.5c-0.6,0-1-0.4-1-1c0-16.6-13.5-30.1-30.1-30.1S13.2,40.9,13.2,57.5c0,0.6-0.4,1-1,1s-1-0.4-1-1
	c0-17.7,14.4-32.1,32.1-32.1s32.1,14.4,32.1,32.1C75.4,58,75,58.5,74.4,58.5z"/>
<path class="st0" d="M85.7,14.1H44.3V1c0-0.5-0.4-1-1-1c-0.5,0-1,0.5-1,1v13.1H1c-0.5,0-1,0.4-1,1v56.5c0,0.5,0.5,1,1,1h41
	L25.6,90.9c-0.4,0.4-0.3,1,0.1,1.4s1,0.3,1.4-0.1L43.3,74l16.1,18.2c0.2,0.2,0.5,0.3,0.8,0.3c0.2,0,0.5-0.1,0.7-0.2
	c0.4-0.4,0.5-1,0.1-1.4L44.7,72.6h41c0.5,0,1-0.5,1-1V15.1C86.7,14.6,86.2,14.1,85.7,14.1z M84.7,70.6H2V16.1h82.7V70.6z"/>
</svg>
