<?xml version="1.0" encoding="utf-8"?>
<!-- Generator: Adobe Illustrator 27.3.1, SVG Export Plug-In . SVG Version: 6.00 Build 0)  -->
<svg version="1.1" id="Layer_1" xmlns="http://www.w3.org/2000/svg" xmlns:xlink="http://www.w3.org/1999/xlink" x="0px" y="0px"
	 viewBox="0 0 89.7 87.8" style="enable-background:new 0 0 89.7 87.8;" xml:space="preserve">
<g>
	<g>
		<g>
			<path d="M76.2,58.8c-0.2,0-0.5-0.1-0.7-0.3L65,49.1c-0.2-0.2-0.5-0.3-0.8-0.3H44.1c-1.8,0-3.2-1.4-3.2-3.2V15.8
				c0-1.8,1.4-3.2,3.2-3.2h41.8c1.8,0,3.2,1.4,3.2,3.2v29.9c0,1.8-1.4,3.2-3.2,3.2h-7.5c-0.3,0-0.6,0.1-0.8,0.3
				c-0.2,0.2-0.3,0.5-0.3,0.8l0,7.8c0,0.4-0.2,0.8-0.6,0.9C76.5,58.8,76.3,58.8,76.2,58.8z M44.1,14.6c-0.6,0-1.2,0.5-1.2,1.2v29.9
				c0,0.7,0.5,1.2,1.2,1.2h20.1c0.8,0,1.5,0.3,2.1,0.8l8.9,7.9l0-5.5c0-0.8,0.3-1.6,0.9-2.3s1.4-0.9,2.3-0.9h7.5
				c0.7,0,1.2-0.5,1.2-1.2V15.8c0-0.6-0.5-1.2-1.2-1.2H44.1z"/>
		</g>
	</g>
	<g>
		<path d="M79.4,26.1H50.5c-0.6,0-1-0.4-1-1s0.4-1,1-1h28.9c0.6,0,1,0.4,1,1S80,26.1,79.4,26.1z"/>
	</g>
	<g>
		<path d="M68.1,37.6H50.7c-0.6,0-1-0.4-1-1s0.4-1,1-1h17.4c0.6,0,1,0.4,1,1S68.6,37.6,68.1,37.6z"/>
	</g>
	<g>
		<path d="M44.9,54.5H10.3c-0.6,0-1-0.4-1-1s0.4-1,1-1h34.5c0.6,0,1,0.4,1,1S45.4,54.5,44.9,54.5z"/>
	</g>
	<g>
		<path d="M33.3,66h-23c-0.6,0-1-0.4-1-1s0.4-1,1-1h23c0.6,0,1,0.4,1,1S33.9,66,33.3,66z"/>
	</g>
	<g>
		<path d="M7.4,32.3c-0.2,0-0.3,0-0.4-0.1c-0.3-0.2-0.6-0.5-0.6-0.9v-4.4c0-0.6-0.5-1.2-1.2-1.2H3.9c-1.8,0-3.2-1.4-3.2-3.2V3.8
			c0-1.8,1.4-3.2,3.2-3.2h35.8c1.8,0,3.2,1.4,3.2,3.2v18.7c0,1.8-1.4,3.2-3.2,3.2H16.8c-0.3,0-0.5,0.1-0.7,0.2l-8.1,6.1
			C7.9,32.2,7.7,32.3,7.4,32.3z M3.9,2.7c-0.6,0-1.2,0.5-1.2,1.2v18.7c0,0.6,0.5,1.2,1.2,1.2h1.4c1.8,0,3.2,1.4,3.2,3.2v2.4l6.4-4.9
			c0.5-0.4,1.2-0.6,1.9-0.6h22.8c0.6,0,1.2-0.5,1.2-1.2V3.8c0-0.6-0.5-1.2-1.2-1.2H3.9z"/>
	</g>
	<g>
		<path d="M33.2,14.2H10.3c-0.6,0-1-0.4-1-1s0.4-1,1-1h22.9c0.6,0,1,0.4,1,1S33.7,14.2,33.2,14.2z"/>
	</g>
	<g>
		<g>
			<path d="M18.9,87.1c-0.2,0-0.3,0-0.5-0.1c-0.3-0.2-0.5-0.5-0.5-0.9l0-7.8c0-0.3-0.1-0.6-0.3-0.8c-0.2-0.2-0.5-0.3-0.8-0.3H3.9
				c-1.8,0-3.2-1.4-3.2-3.2V44.1c0-1.8,1.4-3.2,3.2-3.2h38c0.6,0,1,0.4,1,1s-0.4,1-1,1h-38c-0.6,0-1.2,0.5-1.2,1.2V74
				c0,0.7,0.5,1.2,1.2,1.2h12.9c0.9,0,1.6,0.3,2.3,0.9c0.6,0.6,0.9,1.4,0.9,2.3l0,6l14.5-8.7c0.5-0.3,1.1-0.5,1.6-0.5h15.2
				c0.7,0,1.2-0.5,1.2-1.2V48.3c0-0.6,0.4-1,1-1s1,0.4,1,1V74c0,1.8-1.4,3.2-3.2,3.2H36.1c-0.2,0-0.4,0.1-0.6,0.2L19.4,87
				C19.3,87.1,19.1,87.1,18.9,87.1z"/>
		</g>
	</g>
</g>
</svg>
