<svg id="LOGO_PRETO" data-name="LOGO PRETO" xmlns="http://www.w3.org/2000/svg" width="271.504" height="59.271" viewBox="0 0 271.504 59.271">
  <path id="Caminho_1" data-name="Caminho 1" d="M108.349,46.52c0,7.217,2.085,9.463,5.213,10.025V58.47H90.383V56.546c3.529-.563,6.015-2.246,6.015-8.423V16.363c0-3.29-1.925-5.054-6.015-5.374V9.3a59.979,59.979,0,0,0,16.2-9.3h1.444Z" transform="translate(-49.484)"/>
  <path id="Caminho_2" data-name="Caminho 2" d="M53.821,36.841v.152a4.343,4.343,0,0,1,1.856,4.42c-.421,1.653-1.428,3.754-1.428,5.743a6,6,0,0,0,6.1,6.337,6.3,6.3,0,0,0,6.1-6.1C66.441,42.245,61.49,37.926,53.821,36.841Z" transform="translate(-29.466 -20.17)"/>
  <path id="Caminho_3" data-name="Caminho 3" d="M221.51,55.018a5.637,5.637,0,0,0,5.855-5.615c0-2.725-1.925-3.779-1.925-6.3a5.115,5.115,0,0,1,2.241-4.586v-.281c-6.726,1.842-11.544,6.156-11.544,10.924C216.137,52.694,218.622,55.018,221.51,55.018Z" transform="translate(-118.331 -20.935)"/>
  <g id="Grupo_2" data-name="Grupo 2">
    <path id="Caminho_4" data-name="Caminho 4" d="M397.777,56.546c3.529-.563,6.015-2.246,6.015-8.423V16.363c0-2.808-1.444-4.652-4.492-5.133l-1.523-.241V9.3l2.646-1.042A57.079,57.079,0,0,0,414.3,0h1.444V46.52c0,7.217,2.085,9.463,6.015,10.025V58.47H397.777Z" transform="translate(-217.777)"/>
    <path id="Caminho_5" data-name="Caminho 5" d="M458.737,56.546c3.529-.563,6.015-2.246,6.015-8.423V32.4c0-3.288-1.925-5.054-6.015-5.374V25.344a61.494,61.494,0,0,0,16.523-9.3H476.7V46.52c0,7.217,2.085,9.463,5.213,10.025V58.47H458.737ZM463.068,6.9c0-4.33,2.807-6.9,7.138-6.9a6.763,6.763,0,0,1,7.138,6.9c0,4.573-3.369,6.9-7.138,6.9A6.764,6.764,0,0,1,463.068,6.9Z" transform="translate(-251.152 0)"/>
    <path id="Caminho_6" data-name="Caminho 6" d="M26.388,72.224c-8.743,0-14.276-6.337-14.2-18.368.069-9.1,2.847-15.809,6.456-16.89v-.125C7.311,37.633,0,45.853,0,58.026,0,70.379,8.422,79.441,20.212,79.441c7.62,0,14.6-4.17,17.084-10.586l-1.284-.882A12.2,12.2,0,0,1,26.388,72.224Z" transform="translate(0 -20.17)"/>
    <path id="Caminho_7" data-name="Caminho 7" d="M159.478,66.608V48.641c0-9.544-6.577-11.95-11.63-11.95-4.558,0-9.8,3.927-13.887,7.378v.8a13.069,13.069,0,0,1,7.871-2.8c3.609,0,5.695,2.806,5.695,8.981V68.21c0,6.177-2.487,7.861-5.214,8.423v1.924h23.18V76.634C161.563,76.071,159.478,73.825,159.478,66.608Z" transform="translate(-73.341 -20.088)"/>
    <path id="Caminho_8" data-name="Caminho 8" d="M253.988,72.943a3.417,3.417,0,0,1-2.085.8c-1.925,0-3.769-2.167-3.769-6.337V50.086c0-9.384-5.615-13.394-15.881-13.394-.483,0-.961.016-1.436.041v.392c3.2.57,5.164,5.236,5.446,13.923v4.478h-.011l-.069,13.089a10.121,10.121,0,0,0,.241,2.246,9.828,9.828,0,0,1-6.5,2.325c-4.251,0-6.416-3.047-6.416-7.46,0-4.7,2.367-8.912,10.764-12.059V51.693c-19.1,6.286-22.715,10.428-22.715,17.64,0,5.054,4.571,10.025,11.148,10.025,5.534,0,10.025-2.005,14.276-6.576a9.607,9.607,0,0,0,8.662,6.175c4.01,0,7.861-2.005,9.464-4.892Z" transform="translate(-115.826 -20.088)"/>
    <g id="Grupo_1" data-name="Grupo 1" transform="translate(142.889 16.158)">
      <path id="Caminho_9" data-name="Caminho 9" d="M333.412,35.707h-1.444a59.979,59.979,0,0,1-16.2,9.3V46.7c3.769,0,6.015,2.246,6.015,5.374V67.788c0,6.177-2.487,7.861-6.015,8.423v1.924H340.55V76.212c-4.732-.563-6.818-2.809-6.818-10.026Z" transform="translate(-315.767 -35.707)"/>
      <path id="Caminho_10" data-name="Caminho 10" d="M368.979,36.95c-2.9,0-6.483,3.868-9.776,7.145v.425a5.146,5.146,0,0,1,2.317-.468c3.1,0,3.769,5.008,8.341,5.008a5.849,5.849,0,0,0,5.776-5.775A6.328,6.328,0,0,0,368.979,36.95Z" transform="translate(-339.547 -36.387)"/>
    </g>
    <path id="Caminho_11" data-name="Caminho 11" d="M554.1,68.178a12.879,12.879,0,0,1-9.785,4.091c-8.342,0-13.314-5.133-14.117-15.881,7.7-.4,15.479-.882,24.061-1.283.522-10.741-5.547-17.311-14.912-18.181l0,.533c2.319,2.087,3.93,8.271,4.168,16.122-4.251.241-8.422.563-13.395.8V53.1c.058-7.16.692-13.579,3.523-15.643v-.533c-9.123,1.7-15.714,10.1-15.714,21.147,0,12.031,8.662,21.415,20.212,21.415,7.78,0,14.677-4.33,16.923-10.586Z" transform="translate(-283.556 -20.216)"/>
  </g>
</svg>
