<?xml version="1.0" encoding="utf-8"?>
<!-- Generator: Adobe Illustrator 27.3.1, SVG Export Plug-In . SVG Version: 6.00 Build 0)  -->
<svg version="1.1" id="PREDIO_EMPREENDIMENTO" xmlns="http://www.w3.org/2000/svg" xmlns:xlink="http://www.w3.org/1999/xlink"
	 x="0px" y="0px" viewBox="0 0 80.7 81.8" style="enable-background:new 0 0 80.7 81.8;" xml:space="preserve">
<g id="Caminho_46">
	<path d="M75.7,81.8H5c-0.6,0-1-0.4-1-1V14.2c0-0.6,0.4-1,1-1s1,0.4,1,1v65.6h68.6V14.2c0-0.6,0.4-1,1-1s1,0.4,1,1v66.6
		C76.7,81.3,76.2,81.8,75.7,81.8z"/>
</g>
<g id="Retângulo_25">
	<path d="M50.5,81.8H30.3c-0.6,0-1-0.4-1-1V63.1c0-0.6,0.4-1,1-1h20.2c0.6,0,1,0.4,1,1v17.7C51.5,81.3,51.1,81.8,50.5,81.8z
		 M31.3,79.8h18.2V64.1H31.3V79.8z"/>
</g>
<g id="Retângulo_26" transform="translate(25.22 25.223)">
	<g>
		<path d="M6,7h-7c-0.6,0-1-0.4-1-1v-7c0-0.6,0.4-1,1-1h7c0.6,0,1,0.4,1,1v7C7,6.6,6.6,7,6,7z M0,5h5V0H0V5z"/>
	</g>
</g>
<g id="Retângulo_27" transform="translate(50.443 25.223)">
	<g>
		<path d="M6,7h-7c-0.6,0-1-0.4-1-1v-7c0-0.6,0.4-1,1-1h7c0.6,0,1,0.4,1,1v7C7,6.6,6.6,7,6,7z M0,5h5V0H0V5z"/>
	</g>
</g>
<g id="Retângulo_28" transform="translate(25.22 45.401)">
	<g>
		<path d="M6,7h-7c-0.6,0-1-0.4-1-1v-7c0-0.6,0.4-1,1-1h7c0.6,0,1,0.4,1,1v7C7,6.6,6.6,7,6,7z M0,5h5V0H0V5z"/>
	</g>
</g>
<g id="Retângulo_29" transform="translate(50.443 45.401)">
	<g>
		<path d="M6,7h-7c-0.6,0-1-0.4-1-1v-7c0-0.6,0.4-1,1-1h7c0.6,0,1,0.4,1,1v7C7,6.6,6.6,7,6,7z M0,5h5V0H0V5z"/>
	</g>
</g>
<g id="Retângulo_30" transform="translate(0 0)">
	<g>
		<path d="M73.6,14.2H7.1C3.2,14.2,0,11,0,7.1S3.2,0,7.1,0h66.5c3.9,0,7.1,3.2,7.1,7.1C80.7,11,77.5,14.2,73.6,14.2z M7.1,2
			C4.3,2,2,4.3,2,7.1c0,2.8,2.3,5.1,5.1,5.1h66.5c2.8,0,5.1-2.3,5.1-5.1c0-2.8-2.3-5.1-5.1-5.1H7.1z"/>
	</g>
</g>
</svg>
